<svg width="500" height="500" viewBox="0 0 500 500" fill="none" xmlns="http://www.w3.org/2000/svg">
<g clip-path="url(#clip0_34_11)">
<path d="M245.17 -0.0985266C246.06 -0.0934315 246.95 -0.0902274 247.841 -0.0876251C254.572 -0.0677093 261.304 -0.0320263 268.031 0.203368C268.422 0.216367 268.422 0.216367 268.82 0.229628C272.656 0.365174 276.443 0.765713 280.25 1.25024C280.519 1.28395 280.519 1.28395 280.793 1.31833C301.951 3.98285 322.969 9.13851 342.699 17.2759C343.266 17.5067 343.835 17.73 344.405 17.9514C352.809 21.2247 361.101 25.1451 369 29.5002C369.214 29.6185 369.429 29.7367 369.65 29.8585C380.595 35.9183 391.031 42.6971 401 50.2502C401.172 50.3804 401.345 50.5106 401.522 50.6447C405.222 53.4402 408.815 56.347 412.322 59.3815C412.75 59.7507 413.182 60.1166 413.614 60.4817C415.506 62.0825 417.332 63.7408 419.136 65.4407C419.835 66.0986 420.546 66.7402 421.266 67.3752C422.477 68.4547 423.616 69.6017 424.751 70.7605C425.396 71.4152 426.031 72.0255 426.746 72.6057C427.514 73.262 428.134 73.9582 428.788 74.7239C429.565 75.6093 430.409 76.4257 431.25 77.2502C432.409 78.3867 433.522 79.5391 434.581 80.7692C435.232 81.5165 435.914 82.2328 436.594 82.9534C437.751 84.1896 438.85 85.4533 439.908 86.7756C440.617 87.6441 441.355 88.4853 442.094 89.3284C443.496 90.9354 444.829 92.5849 446.131 94.2738C446.53 94.7886 446.932 95.3003 447.335 95.8118C449.246 98.2426 451.087 100.715 452.881 103.233C453.223 103.713 453.567 104.192 453.912 104.67C459.364 112.246 464.363 120.119 468.862 128.297C469.221 128.947 469.582 129.595 469.944 130.242C472.841 135.414 475.556 140.662 477.897 146.113C478.345 147.155 478.821 148.18 479.312 149.203C480.676 152.076 481.819 155.049 483 158C483.1 158.248 483.2 158.496 483.303 158.751C484.931 162.785 486.372 166.875 487.75 171C487.83 171.241 487.83 171.241 487.912 171.486C489.357 175.809 490.673 180.15 491.818 184.564C491.975 185.158 492.141 185.748 492.314 186.337C494.065 192.286 495.261 198.441 496.331 204.543C496.49 205.444 496.653 206.344 496.816 207.244C499.337 221.122 500.133 234.763 500.096 248.858C500.094 250.076 500.095 251.293 500.098 252.511C500.124 263.085 499.85 273.521 498.328 284C498.285 284.304 498.242 284.607 498.198 284.92C497.396 290.567 496.44 296.172 495.25 301.75C495.207 301.953 495.164 302.155 495.119 302.364C493.228 311.201 490.897 319.939 488 328.5C487.908 328.774 487.816 329.047 487.721 329.329C483.91 340.609 479.355 351.631 474.031 362.281C473.935 362.474 473.839 362.667 473.74 362.865C472.403 365.538 470.989 368.16 469.524 370.764C469.158 371.414 468.797 372.066 468.435 372.719C464.865 379.123 460.896 385.238 456.796 391.31C456.379 391.93 455.965 392.551 455.55 393.172C453.853 395.7 452.038 398.111 450.147 400.497C449.575 401.221 449.014 401.954 448.453 402.688C446.486 405.247 444.499 407.776 442.403 410.231C441.805 410.932 441.221 411.644 440.641 412.36C437.02 416.8 437.02 416.8 435.143 418.608C434.697 419.053 434.287 419.522 433.875 420C433.185 420.801 432.461 421.546 431.707 422.285C431.282 422.717 430.89 423.162 430.499 423.624C429.396 424.892 428.211 426.076 427.021 427.262C426.641 427.64 426.263 428.02 425.884 428.4C424.682 429.603 423.47 430.783 422.171 431.882C421.718 432.278 421.296 432.696 420.875 433.125C418.527 435.505 418.527 435.505 417.456 436.003C416.911 436.231 416.911 436.231 416.75 437C416.402 437.36 416.402 437.36 415.937 437.75C415.756 437.904 415.575 438.058 415.389 438.216C415.178 438.392 414.967 438.569 414.75 438.75C414.375 439.068 414 439.385 413.625 439.703C413.351 439.935 413.076 440.168 412.8 440.4C412.072 441.014 411.347 441.631 410.627 442.256C409.114 443.569 407.586 444.844 405.99 446.054C404.952 446.841 403.935 447.651 402.922 448.469C399.846 450.942 396.674 453.28 393.431 455.528C392.917 455.884 392.404 456.241 391.891 456.599C391.1 457.151 390.306 457.7 389.511 458.247C389.192 458.468 388.873 458.689 388.555 458.911C388.107 459.223 387.656 459.532 387.205 459.841C386.812 460.113 386.812 460.113 386.41 460.39C386.192 460.509 385.974 460.628 385.75 460.75C384.82 460.44 384.709 460.159 384.19 459.344C384.029 459.094 383.868 458.844 383.702 458.586C383.527 458.31 383.352 458.034 383.172 457.75C382.79 457.156 382.407 456.563 382.024 455.97C381.923 455.813 381.822 455.656 381.718 455.494C380.587 453.74 379.426 452.005 378.265 450.271C376.634 447.833 375.003 445.396 373.42 442.926C372.753 441.887 372.074 440.856 371.387 439.83C369.639 437.215 367.913 434.585 366.185 431.956C364.1 428.786 364.1 428.786 362 425.625C360.298 423.078 358.618 420.516 356.935 417.956C355.441 415.685 353.946 413.415 352.435 411.154C350.935 408.907 349.455 406.645 347.971 404.386C346.241 401.751 344.502 399.121 342.75 396.5C336.956 387.83 336.956 387.83 335.374 385.356C334.805 384.466 334.224 383.584 333.637 382.705C332.724 381.339 331.819 379.969 330.916 378.597C330.703 378.273 330.703 378.273 330.485 377.942C329.894 377.044 329.303 376.146 328.713 375.248C327.203 372.953 325.693 370.66 324.167 368.377C322.768 366.281 321.39 364.172 320.008 362.066C318.768 360.175 317.526 358.285 316.269 356.405C314.916 354.379 313.578 352.343 312.24 350.307C309.681 346.413 307.11 342.527 304.517 338.655C303.645 337.352 302.775 336.049 301.939 334.722C300.366 332.231 298.702 329.798 297.064 327.349C295.439 324.92 293.822 322.489 292.248 320.026C291.609 319.031 290.952 318.048 290.294 317.065C289.653 316.105 289.018 315.14 288.385 314.175C288.265 313.992 288.145 313.809 288.021 313.621C287.525 312.866 287.03 312.111 286.535 311.357C285.178 309.288 283.817 307.222 282.442 305.165C281.035 303.057 279.648 300.935 278.258 298.816C276.899 296.744 275.536 294.676 274.16 292.616C273.157 291.113 272.165 289.602 271.175 288.091C270.612 287.232 270.049 286.374 269.486 285.516C269.368 285.335 269.249 285.154 269.127 284.967C267.789 282.928 266.45 280.89 265.109 278.853C264.843 278.447 264.576 278.042 264.31 277.637C263.054 275.726 261.797 273.816 260.526 271.915C258.816 269.355 257.127 266.779 255.435 264.206C253.632 261.465 251.823 258.728 250 256C249.68 255.52 249.359 255.039 249.039 254.559C248.89 254.335 248.74 254.111 248.587 253.88C248.264 253.396 247.941 252.912 247.619 252.428C246.791 251.186 245.962 249.943 245.132 248.702C241.294 242.96 241.294 242.96 239.674 240.431C238.719 238.941 237.734 237.471 236.75 236C232.353 229.423 232.353 229.423 230.312 226.263C228.876 224.045 227.401 221.854 225.932 219.658C224.465 217.465 223.018 215.262 221.609 213.031C219.409 209.552 217.089 206.153 214.778 202.746C212.115 198.818 212.115 198.818 210.884 196.856C210.143 195.686 209.365 194.541 208.594 193.391C206.15 189.739 203.735 186.069 201.32 182.399C199.638 179.844 197.95 177.293 196.25 174.75C195.94 174.286 195.631 173.821 195.321 173.357C195.161 173.116 195 172.876 194.835 172.628C194.371 171.931 193.907 171.235 193.443 170.538C192.663 169.366 191.881 168.196 191.098 167.027C190.771 166.539 190.445 166.05 190.12 165.56C189.644 164.845 189.165 164.131 188.686 163.417C188.472 163.092 188.472 163.092 188.252 162.761C186.877 160.722 185.454 158.913 183 158.25C179.723 157.706 176.433 157.672 173.119 157.685C172.31 157.688 171.501 157.685 170.692 157.682C165.826 157.678 162.288 157.775 158.565 161.18C158.285 161.462 158.285 161.462 158 161.75C157.826 161.914 157.652 162.078 157.473 162.247C156.776 163.357 156.86 164.342 156.87 165.629C156.867 166.033 156.867 166.033 156.865 166.446C156.859 167.357 156.861 168.268 156.863 169.179C156.861 169.839 156.859 170.498 156.856 171.158C156.85 172.601 156.848 174.044 156.848 175.488C156.848 177.655 156.843 179.823 156.837 181.991C156.825 186.146 156.819 190.3 156.816 194.455C156.814 197.695 156.809 200.934 156.804 204.174C156.803 204.642 156.802 205.11 156.801 205.577C156.8 206.285 156.799 206.992 156.798 207.699C156.786 214.459 156.776 221.218 156.77 227.977C156.77 228.239 156.77 228.501 156.77 228.771C156.769 229.841 156.768 230.911 156.767 231.981C156.758 242.284 156.742 252.588 156.718 262.891C156.692 274.4 156.671 285.908 156.657 297.417C156.655 298.68 156.653 299.942 156.652 301.205C156.651 301.517 156.651 301.828 156.651 302.149C156.644 306.872 156.634 311.595 156.622 316.319C156.608 321.73 156.6 327.141 156.598 332.552C156.597 335.612 156.592 338.671 156.581 341.731C156.574 343.788 156.572 345.844 156.575 347.901C156.576 349.077 156.575 350.253 156.568 351.429C156.561 352.502 156.561 353.574 156.567 354.647C156.567 355.032 156.566 355.418 156.561 355.803C156.53 358.625 157.07 361.252 159.075 363.393C161.43 365.372 163.274 366.049 166.361 365.963C166.698 365.961 167.034 365.959 167.37 365.958C168.069 365.954 168.768 365.944 169.466 365.929C170.354 365.909 171.242 365.9 172.13 365.895C172.988 365.89 173.847 365.88 174.705 365.869C175.177 365.864 175.177 365.864 175.659 365.858C179.169 365.783 181.707 365.409 184.219 362.813C189.046 356.924 186.3 341.523 186.316 334.223C186.321 332.297 186.326 330.371 186.332 328.444C186.343 324.94 186.352 321.436 186.361 317.932C186.375 312.777 186.39 307.622 186.406 302.467C186.406 302.254 186.407 302.04 186.408 301.82C186.416 299.24 186.424 296.659 186.432 294.078C186.436 292.575 186.441 291.073 186.445 289.57C186.488 275.46 186.54 261.349 186.614 247.239C186.622 245.568 186.631 243.897 186.639 242.226C186.685 232.398 186.76 222.575 187 212.75C187.247 212.75 187.495 212.75 187.75 212.75C188.164 213.266 188.164 213.266 188.625 214C188.801 214.275 188.977 214.549 189.159 214.832C189.254 214.981 189.35 215.13 189.448 215.284C189.975 216.097 190.527 216.891 191.078 217.688C191.317 218.034 191.555 218.38 191.794 218.727C192.134 219.22 192.474 219.713 192.815 220.206C194.445 222.568 196.06 224.939 197.672 227.313C197.772 227.461 197.873 227.609 197.976 227.761C198.998 229.266 200.016 230.773 201.022 232.288C202.14 233.969 203.297 235.621 204.456 237.273C205.834 239.246 207.17 241.245 208.5 243.25C208.727 243.593 208.954 243.935 209.182 244.277C209.296 244.45 209.41 244.622 209.528 244.799C209.995 245.502 210.462 246.204 210.929 246.907C211.165 247.262 211.401 247.618 211.637 247.974C212.902 249.884 214.181 251.773 215.541 253.618C216.31 254.677 217.029 255.768 217.75 256.86C217.902 257.089 218.054 257.318 218.211 257.555C218.641 258.203 219.071 258.851 219.5 259.5C220.544 261.077 221.598 262.647 222.672 264.203C224.089 266.258 225.49 268.324 226.891 270.391C227.001 270.553 227.111 270.716 227.225 270.883C228.529 272.808 229.826 274.737 231.114 276.672C232.009 278.017 232.916 279.354 233.828 280.688C233.987 280.92 234.145 281.152 234.308 281.391C234.789 282.094 235.269 282.797 235.75 283.5C236.039 283.923 236.327 284.345 236.616 284.768C238.119 286.967 238.119 286.967 239.629 289.162C241.239 291.496 242.832 293.841 244.422 296.188C244.534 296.354 244.647 296.52 244.763 296.69C245.851 298.296 246.937 299.902 248.011 301.517C249.024 303.04 250.052 304.554 251.081 306.068C253.375 309.446 255.649 312.838 257.907 316.24C258.938 317.793 259.977 319.337 261.052 320.861C261.899 322.069 262.724 323.293 263.552 324.515C263.858 324.967 264.164 325.419 264.471 325.87C265.408 327.252 266.342 328.636 267.267 330.026C268.292 331.566 269.332 333.096 270.375 334.625C271.423 336.162 272.468 337.699 273.498 339.247C274.445 340.67 275.404 342.084 276.367 343.497C278.545 346.696 280.698 349.911 282.837 353.136C285.493 357.134 288.226 361.077 291.118 364.908C291.894 365.939 292.657 366.977 293.422 368.016C293.57 368.217 293.718 368.419 293.871 368.626C294.485 369.46 295.099 370.295 295.713 371.13C297.784 373.948 297.784 373.948 299.875 376.75C301.59 379.029 303.273 381.332 304.963 383.63C306.517 385.741 308.072 387.851 309.648 389.946C310.595 391.208 311.527 392.482 312.462 393.753C313.261 394.839 314.064 395.923 314.875 397C316.59 399.279 318.273 401.582 319.963 403.88C322.034 406.698 322.034 406.698 324.125 409.5C325.978 411.963 327.796 414.452 329.621 416.936C331.117 418.971 332.622 420.998 334.141 423.016C335.315 424.576 336.472 426.147 337.609 427.735C338.975 429.641 340.39 431.506 341.817 433.366C342.833 434.694 343.822 436.034 344.782 437.402C345.917 439.006 347.12 440.558 348.313 442.117C349.3 443.408 350.276 444.704 351.225 446.023C353.527 449.211 355.885 452.358 358.25 455.5C359.855 457.633 361.451 459.771 363.031 461.922C364.412 463.802 365.817 465.66 367.25 467.5C367.429 467.731 367.608 467.961 367.792 468.198C368.194 468.716 368.597 469.233 369 469.75C367.799 473.017 360.063 475.278 357.004 476.701C354.92 477.664 352.826 478.603 350.729 479.536C350.285 479.735 349.842 479.935 349.398 480.135C341.655 483.634 333.556 486.604 325.419 489.049C324.698 489.266 323.979 489.488 323.261 489.711C321.843 490.15 320.423 490.578 319 491C318.808 491.057 318.616 491.114 318.418 491.173C315.252 492.103 312.044 492.834 308.826 493.561C308.055 493.738 307.285 493.921 306.517 494.109C299.27 495.859 291.877 497.185 284.5 498.25C284.207 498.293 283.914 498.335 283.612 498.379C275.137 499.591 266.741 500.04 258.185 500.042C257.544 500.043 256.903 500.044 256.262 500.045C254.925 500.046 253.588 500.047 252.252 500.047C250.903 500.046 249.554 500.048 248.204 500.052C228.778 500.101 228.778 500.101 219.25 498.75C218.675 498.672 218.1 498.593 217.524 498.515C205.194 496.814 192.988 494.357 181 491C180.727 490.924 180.455 490.849 180.174 490.77C176.514 489.744 172.91 488.571 169.312 487.344C169.013 487.242 169.013 487.242 168.707 487.138C166.393 486.349 164.107 485.517 161.844 484.591C160.938 484.225 160.026 483.885 159.109 483.547C149.514 479.973 140.078 475.617 131.145 470.609C130.473 470.235 129.796 469.869 129.118 469.504C126.024 467.839 122.996 466.085 120 464.25C119.687 464.06 119.375 463.869 119.062 463.679C114.339 460.788 109.773 457.694 105.25 454.5C105.003 454.326 105.003 454.326 104.751 454.148C101.362 451.759 98.0561 449.272 94.83 446.667C94.1805 446.143 93.5232 445.631 92.8593 445.125C91.7292 444.253 90.6534 443.319 89.5737 442.386C88.6814 441.616 87.7786 440.863 86.8593 440.125C85.3885 438.931 84.0124 437.644 82.6287 436.352C82.0915 435.853 81.5462 435.364 80.9999 434.875C78.0863 432.257 75.2719 429.562 72.5057 426.789C71.9028 426.184 71.2986 425.581 70.6943 424.979C70.3045 424.589 69.9149 424.199 69.5253 423.809C69.3477 423.632 69.1701 423.455 68.987 423.272C67.9994 422.28 67.054 421.264 66.1417 420.202C65.4895 419.45 64.806 418.727 64.1249 418C62.9769 416.769 61.8459 415.528 60.7499 414.25C60.5251 413.992 60.3001 413.733 60.0751 413.475C58.672 411.857 57.3115 410.216 55.999 408.525C55.2901 407.613 54.5612 406.724 53.8124 405.844C52.2009 403.924 50.7185 401.907 49.227 399.893C48.7741 399.283 48.319 398.674 47.8632 398.066C41.6794 389.782 36.1187 381.007 31.1375 371.953C30.7793 371.304 30.4183 370.655 30.0556 370.008C27.7466 365.886 25.5945 361.717 23.5781 357.442C23.2792 356.812 22.9766 356.184 22.6718 355.556C21.2011 352.516 19.8783 349.419 18.5825 346.3C18.2688 345.546 17.9528 344.792 17.6367 344.038C16.4787 341.262 15.4286 338.464 14.4606 335.616C14.1775 334.789 13.8861 333.964 13.5948 333.139C9.33267 321.054 6.08077 308.828 3.67181 296.25C3.60991 295.928 3.60991 295.928 3.54675 295.6C2.98859 292.686 2.51156 289.767 2.08556 286.831C1.98231 286.131 1.87277 285.431 1.76199 284.731C0.0313931 273.745 -0.122558 262.793 -0.0964806 251.698C-0.093649 250.353 -0.0946833 249.008 -0.0978386 247.663C-0.13608 230.889 -0.13608 230.889 0.74994 223C0.785651 222.678 0.821362 222.356 0.858155 222.025C1.09551 219.944 1.37401 217.87 1.67181 215.797C1.71482 215.492 1.75783 215.187 1.80214 214.872C3.41403 203.457 5.75542 192.186 8.99677 181.121C9.22568 180.334 9.44755 179.545 9.66596 178.755C11.4848 172.237 13.7304 165.78 16.2499 159.5C16.3427 159.268 16.4355 159.037 16.5311 158.798C17.4605 156.484 18.3939 154.175 19.454 151.917C19.7652 151.216 20.031 150.507 20.2958 149.787C21.0323 147.86 21.9186 146.022 22.8281 144.172C22.9977 143.825 23.1673 143.477 23.3368 143.13C23.806 142.169 24.2778 141.21 24.7499 140.25C24.8529 140.04 24.9559 139.83 25.062 139.614C25.522 138.676 25.9888 137.742 26.4637 136.811C26.6816 136.384 26.8986 135.957 27.1153 135.529C29.0708 131.675 31.1219 127.9 33.3383 124.19C33.7266 123.539 34.1117 122.887 34.496 122.235C37.4728 117.2 40.658 112.299 43.9999 107.5C44.2854 107.088 44.5709 106.675 44.8564 106.263C47.6036 102.304 50.4139 98.4106 53.4794 94.6917C54.2117 93.8022 54.9195 92.8954 55.6249 91.9846C56.9879 90.2327 58.4375 88.5607 59.9034 86.8945C60.3285 86.4109 60.7499 85.9242 61.1718 85.4377C62.0654 84.4177 62.982 83.4186 63.8964 82.4172C64.4077 81.8522 64.9092 81.2809 65.4062 80.7034C66.1337 79.8649 66.9046 79.0836 67.7031 78.3127C68.1451 77.858 68.5519 77.3979 68.9619 76.9153C70.2737 75.4056 71.7039 74.0091 73.1196 72.598C73.6082 72.1108 74.0954 71.6222 74.5825 71.1335C75.9569 69.7583 77.3249 68.3899 78.8076 67.1302C79.6485 66.4079 80.4454 65.6374 81.2499 64.8752C82.5581 63.6361 83.8859 62.4277 85.2499 61.2502C85.3955 61.1242 85.541 60.9981 85.691 60.8682C88.5694 58.3791 91.5087 55.9754 94.5085 53.6343C95.0252 53.2305 95.5409 52.8253 96.0566 52.4202C105.423 45.0764 115.32 38.4164 125.688 32.5673C126.109 32.33 126.528 32.0922 126.948 31.8541C129.943 30.1558 132.937 28.4773 136.036 26.9761C136.671 26.6671 137.302 26.3511 137.933 26.0348C138.437 25.7819 138.942 25.5297 139.446 25.2776C140.107 24.9475 140.767 24.6158 141.425 24.2821C143.631 23.1671 145.856 22.1013 148.107 21.0796C148.626 20.8437 149.143 20.6056 149.661 20.3674C151.696 19.4377 153.747 18.5998 155.851 17.8368C156.745 17.5021 157.611 17.136 158.484 16.7502C160.094 16.0493 161.727 15.4627 163.385 14.8899C164.324 14.5648 165.255 14.2221 166.185 13.8737C170.62 12.2142 175.108 10.7393 179.673 9.47925C180.484 9.25464 181.295 9.02783 182.105 8.80045C182.898 8.57833 183.69 8.35683 184.482 8.13548C184.872 8.02651 185.262 7.91744 185.652 7.80824C189.495 6.73331 193.329 5.75393 197.25 5.00024C197.774 4.89657 198.298 4.79203 198.822 4.68748C203.367 3.78218 207.911 2.90739 212.5 2.25024C212.663 2.22677 212.826 2.20329 212.993 2.17911C223.736 0.634121 234.311 -0.166642 245.17 -0.0985266ZM313 153.5C310.161 157.284 310.445 161.145 310.367 165.675C310.362 165.962 310.357 166.249 310.352 166.545C310.048 184.091 310.107 201.646 310.074 219.194C310.071 220.522 310.069 221.849 310.066 223.176C310.066 223.506 310.065 223.835 310.064 224.175C310.054 229.378 310.033 234.581 310.007 239.784C309.979 245.495 309.963 251.207 309.958 256.918C309.954 260.323 309.942 263.728 309.919 267.134C309.904 269.461 309.9 271.789 309.905 274.117C309.907 275.457 309.905 276.796 309.889 278.136C309.536 285.019 309.536 285.02 312.482 290.957C312.611 291.086 312.74 291.215 312.872 291.348C313.523 292.041 314.008 292.842 314.516 293.641C314.718 293.946 314.922 294.251 315.126 294.556C315.92 295.754 316.698 296.962 317.476 298.171C318.197 299.288 318.93 300.397 319.672 301.5C320.808 303.191 321.904 304.907 323 306.625C324.156 308.438 325.317 310.245 326.516 312.029C327.56 313.584 328.585 315.151 329.609 316.719C329.702 316.862 329.796 317.004 329.892 317.151C331.078 318.967 332.261 320.787 333.438 322.61C334.417 324.126 335.404 325.638 336.391 327.149C336.662 327.563 336.932 327.977 337.203 328.392C337.718 329.179 338.234 329.965 338.75 330.75C338.843 330.892 338.936 331.034 339.031 331.18C339.308 331.604 339.586 332.026 339.864 332.448C340.028 332.698 340.192 332.948 340.361 333.205C340.554 333.475 340.554 333.475 340.75 333.75C340.832 333.75 340.915 333.75 341 333.75C341.004 317.607 341.008 301.464 341.011 285.322C341.011 285.082 341.011 284.843 341.011 284.597C341.011 279.399 341.012 274.201 341.013 269.003C341.013 266.454 341.013 263.904 341.014 261.355C341.014 260.974 341.014 260.974 341.014 260.586C341.015 252.372 341.017 244.159 341.019 235.945C341.021 227.5 341.023 219.055 341.023 210.61C341.024 209.416 341.024 208.222 341.024 207.027C341.024 206.792 341.024 206.557 341.024 206.315C341.024 202.54 341.025 198.765 341.027 194.99C341.028 191.19 341.029 187.39 341.028 183.589C341.028 181.335 341.029 179.081 341.03 176.826C341.031 175.315 341.031 173.805 341.03 172.294C341.03 171.436 341.03 170.579 341.031 169.721C341.033 167.647 341.023 165.574 341 163.5C340.998 163.212 340.996 162.923 340.994 162.625C340.986 161.777 340.97 160.929 340.951 160.081C340.95 159.831 340.949 159.582 340.947 159.325C340.871 156.801 339.8 154.842 338.097 153.012C336.342 151.507 334.292 150.727 332.007 150.706C331.706 150.703 331.404 150.7 331.094 150.696C330.769 150.694 330.443 150.693 330.108 150.691C329.858 150.689 329.858 150.689 329.603 150.688C328.72 150.682 327.837 150.679 326.953 150.676C326.048 150.674 325.142 150.665 324.237 150.655C323.535 150.649 322.833 150.647 322.131 150.646C321.637 150.644 321.143 150.637 320.649 150.631C317.675 150.638 315.124 151.321 313 153.5Z" fill="black"/>
</g>
<defs>
<clipPath id="clip0_34_11">
<rect width="500" height="500" fill="white"/>
</clipPath>
</defs>
</svg>
