<svg width="500" height="473" viewBox="0 0 500 473" fill="none" xmlns="http://www.w3.org/2000/svg">
<path d="M282.557 203.582C290.758 212.595 294.832 224.544 295.103 236.938C294.805 249.976 290.111 261.508 281.763 271.004C271.551 281.048 260.092 284.718 246.403 284.469C236.692 284.083 228.047 280.096 220.703 273.418C220.332 273.119 219.96 272.819 219.577 272.51C210.662 265.03 206.081 253.069 204.725 241.427C203.983 228.293 207.211 215.55 215.456 205.42C223.493 195.985 234.439 189.781 246.552 188.932C260.593 188.761 272.394 193.236 282.557 203.582Z" fill="#61DAFB"/>
<path d="M187.17 9.84226C187.618 10.0598 188.066 10.2774 188.528 10.5016C199.886 16.0685 210.555 23.1382 220.388 31.3253C221.414 32.1793 222.446 33.0235 223.48 33.8662C229.934 39.1481 236.114 44.717 242.107 50.5737C243.474 51.9082 244.845 53.2361 246.233 54.5467C246.568 54.8649 246.904 55.1831 247.249 55.511C248.285 56.3648 249.322 56.9495 250.513 57.527C250.928 57.0776 250.928 57.0776 251.351 56.6192C253.638 54.1675 255.969 51.8221 258.44 49.5787C259.744 48.3805 261.011 47.1447 262.283 45.9076C265.498 42.8392 268.893 40.0452 272.316 37.2449C273.3 36.4327 274.274 35.6086 275.245 34.7786C297.643 15.6946 326.048 -2.07852 355.826 0.349644C369.587 2.09491 381.144 9.2819 389.753 20.7071C395.83 29.8954 399.611 40.205 401.844 51.1137C401.933 51.5394 402.021 51.9651 402.112 52.4037C403.922 61.7836 404.253 71.1463 404.234 80.6902C404.233 81.6191 404.233 81.6191 404.232 82.5667C404.174 104.563 401.054 126.278 395.46 147.464C395.991 147.587 396.521 147.71 397.068 147.837C430.8 155.85 472.46 175.308 491.696 207.263C495.971 214.629 499.531 223.24 499.891 231.968C499.92 232.565 499.949 233.162 499.98 233.777C500.382 249.395 494.765 263.223 485.053 274.824C484.58 275.398 484.107 275.971 483.62 276.562C461.549 302.839 427.046 316.004 396.031 325.527C396.156 326.131 396.281 326.735 396.41 327.357C399.304 341.516 402.022 355.775 403.449 370.194C403.503 370.692 403.557 371.19 403.612 371.703C404.17 377.568 404.146 383.453 404.157 389.341C404.163 391.18 404.18 393.017 404.198 394.855C404.313 417.353 400.015 441.234 384.876 458.04C382.852 460.196 380.71 462.039 378.34 463.752C377.84 464.116 377.34 464.479 376.825 464.853C363.386 473.855 347.6 474.083 332.516 470.517C307.806 464.292 286.139 448.149 267.115 430.929C265.473 429.446 263.791 428.019 262.104 426.593C259.448 424.313 257.044 421.849 254.672 419.244C253.356 417.867 251.977 416.66 250.513 415.464C248.576 416.362 247.213 417.536 245.662 419.048C245.161 419.533 244.66 420.017 244.144 420.517C243.327 421.317 242.509 422.118 241.692 422.92C237.705 426.833 233.645 430.575 229.398 434.176C228.786 434.711 228.175 435.247 227.564 435.784C204.845 455.592 175.121 475.203 144.442 472.467C131.261 471.003 119.775 464.614 111.323 453.751C100.106 438.7 95.8369 418.472 95.7484 399.605C95.7444 399.03 95.7404 398.455 95.7362 397.862C95.6684 385.305 95.7364 372.969 97.5763 360.536C97.6358 360.128 97.6952 359.72 97.7565 359.3C99.2493 349.072 100.919 338.913 103.35 328.882C103.899 326.908 103.899 326.908 103.854 325.527C103.433 325.394 103.012 325.261 102.579 325.124C67.1121 313.853 24.4676 297.552 5.70031 260.941C-0.348852 247.897 -1.75834 234.135 2.31426 220.234C12.037 192.029 37.7117 175.375 62.1623 163.221C71.9438 158.414 82.0848 154.675 92.2977 151.048C92.7087 150.902 93.1197 150.755 93.5432 150.604C94.7171 150.188 95.8923 149.777 97.0681 149.367C97.7447 149.13 98.4213 148.894 99.1183 148.65C100.887 148.103 102.602 147.738 104.424 147.464C104.283 146.928 104.141 146.391 103.995 145.839C98.4965 124.589 95.6842 102.931 95.6147 80.9166C95.6111 80.3328 95.6075 79.749 95.6037 79.1475C95.5607 68.051 96.3231 56.8308 99.1457 46.0962C99.3642 45.2415 99.3642 45.2415 99.5872 44.3695C103.532 29.5368 111.422 15.1273 124.326 7.23922C129.526 4.1887 135.057 1.79149 140.946 0.7882C141.327 0.721285 141.708 0.65437 142.101 0.585427C157.72 -1.68695 173.128 2.91996 187.17 9.84226ZM130.813 31.3504C124.45 38.456 121.116 46.7919 119.261 56.3197C119.176 56.7303 119.091 57.1408 119.003 57.5638C115.693 74.1432 116.825 92.826 119.261 109.437C119.365 110.153 119.469 110.869 119.577 111.607C121.234 126.909 121.234 126.909 125.539 141.428C128.455 141.069 131.306 140.609 134.185 139.99C134.988 139.82 135.79 139.651 136.593 139.483C137.016 139.394 137.439 139.306 137.875 139.214C147.158 137.278 156.474 135.704 165.841 134.298C166.427 134.209 167.012 134.121 167.616 134.03C173.931 133.08 180.24 132.181 186.596 131.604C190.594 131.23 190.594 131.23 193.816 128.932C194.088 128.524 194.361 128.115 194.642 127.694C194.955 127.233 195.268 126.772 195.59 126.297C195.919 125.8 196.247 125.303 196.586 124.791C197.297 123.742 198.01 122.694 198.723 121.646C199.081 121.116 199.44 120.586 199.809 120.041C201.373 117.747 202.984 115.492 204.61 113.247C204.912 112.83 205.214 112.414 205.525 111.984C208.57 107.803 211.714 103.71 214.881 99.6319C215.613 98.6871 216.342 97.7385 217.069 96.7895C222.656 89.5069 228.473 82.4783 234.534 75.6351C232.095 72.523 229.524 69.7062 226.723 66.9583C226.32 66.5608 225.917 66.1634 225.501 65.7539C222.34 62.6621 219.08 59.7476 215.703 56.9234C215.053 56.3632 214.405 55.8019 213.757 55.2399C194.827 38.8892 154.131 7.31589 130.813 31.3504ZM279.046 61.7522C278.627 62.1342 278.209 62.5163 277.777 62.9099C275.46 65.0289 273.184 67.1974 270.914 69.3727C270.624 69.6478 270.334 69.9229 270.035 70.2063C268.288 71.8906 266.778 73.6433 265.35 75.6351C265.633 75.9276 265.916 76.2202 266.208 76.5216C268.909 79.3399 271.445 82.2446 273.91 85.2927C274.427 85.9218 274.944 86.5505 275.461 87.179C278.616 91.0245 281.682 94.9229 284.633 98.9456C286.293 101.207 287.988 103.432 289.71 105.642C292.782 109.59 295.729 113.613 298.591 117.736C298.93 118.22 299.269 118.703 299.618 119.201C301.083 121.3 302.511 123.393 303.807 125.614C305.863 129.121 305.863 129.121 309.147 131.061C309.748 131.124 310.35 131.187 310.969 131.251C311.68 131.336 312.39 131.42 313.122 131.506C313.513 131.548 313.904 131.589 314.307 131.632C316.646 131.889 318.976 132.218 321.308 132.532C322.364 132.671 323.42 132.81 324.476 132.95C334.39 134.265 344.256 135.723 354.087 137.618C354.54 137.705 354.992 137.792 355.458 137.881C360.477 138.853 365.468 139.907 370.444 141.102C372.162 141.503 372.162 141.503 374.346 141.428C375.926 135.429 377.273 129.44 378.376 123.32C378.449 122.919 378.522 122.519 378.597 122.106C379.937 114.703 381.031 107.278 381.764 99.7792C381.818 99.2531 381.872 98.727 381.927 98.1849C382.448 92.4993 382.473 86.8124 382.478 81.1052C382.478 80.5834 382.479 80.0615 382.479 79.5239C382.473 71.6605 382.205 64.0309 380.623 56.3197C380.547 55.9171 380.47 55.5144 380.391 55.0996C378.258 44.1028 373.648 34.3533 364.966 27.6486C337.209 9.97042 298.681 43.5219 279.046 61.7522ZM248.442 93.3589C245.768 96.2095 243.345 99.1971 240.97 102.328C239.747 103.905 238.48 105.41 237.174 106.909C234.604 109.895 232.265 113.036 229.929 116.225C228.749 117.834 227.55 119.422 226.336 121.002C226.02 121.414 225.703 121.826 225.378 122.251C224.762 123.052 224.145 123.852 223.525 124.649C221.945 126.469 221.945 126.469 221.409 128.752C240.241 128.752 259.073 128.752 278.475 128.752C277.41 126.5 276.185 124.645 274.73 122.678C274.476 122.332 274.222 121.986 273.96 121.629C269.798 115.983 265.447 110.504 261.059 105.055C260.477 104.331 259.895 103.606 259.313 102.881C258.402 101.745 257.489 100.611 256.576 99.4774C256.298 99.1301 256.019 98.7829 255.733 98.4251C254.073 96.3705 252.395 94.3693 250.513 92.536C249.315 92.4068 249.315 92.4068 248.442 93.3589ZM214.954 151.623C214.511 151.647 214.069 151.67 213.613 151.694C212.374 151.762 211.135 151.837 209.896 151.916C208.846 151.981 208.846 151.981 207.775 152.047C205.224 152.4 204.146 152.918 202.569 155.068C202.138 155.761 201.713 156.459 201.294 157.159C200.934 157.745 200.934 157.745 200.568 158.343C200.021 159.236 199.477 160.132 198.935 161.028C197.921 162.705 196.896 164.374 195.87 166.044C190.866 174.217 186.072 182.495 181.463 190.923C181.181 191.436 180.899 191.949 180.609 192.477C176.498 199.956 172.511 207.504 168.715 215.167C167.469 217.674 166.17 220.125 164.786 222.548C159.891 230.386 159.891 230.386 158.98 239.193C159.921 241.695 161.311 243.843 162.767 246.041C164.553 248.921 165.922 252.041 167.368 255.121C175.901 273.12 185.755 290.666 196.229 307.48C197.414 309.394 198.463 311.315 199.439 313.356C201.685 317.891 201.685 317.891 205.619 320.602C208.812 321.305 211.978 321.337 215.226 321.295C217.446 321.302 219.649 321.399 221.865 321.512C230.625 321.96 239.381 322.025 248.15 322.019C249.387 322.019 250.625 322.019 251.863 322.019C262.015 322.019 272.151 321.914 282.291 321.34C282.755 321.313 283.218 321.287 283.696 321.26C286.333 321.105 288.968 320.94 291.6 320.698C292.641 320.637 292.641 320.637 293.703 320.575C296.145 319.955 296.634 319.128 297.971 316.916C298.173 316.59 298.375 316.264 298.584 315.927C299.241 314.86 299.879 313.781 300.517 312.7C300.971 311.953 301.426 311.205 301.883 310.459C303.019 308.592 304.139 306.716 305.252 304.834C306.138 303.34 307.032 301.852 307.924 300.362C309.744 297.302 311.522 294.218 313.285 291.122C313.581 290.604 313.877 290.086 314.182 289.552C321.131 277.352 327.668 264.909 333.865 252.265C334.211 251.559 334.557 250.853 334.914 250.126C335.576 248.766 336.224 247.398 336.858 246.023C337.824 244.041 337.824 244.041 338.998 242.173C340.94 238.807 340.94 238.807 341.025 234.96C339.936 231.462 338.204 228.3 336.504 225.102C335.987 224.08 335.472 223.055 334.959 222.03C333.701 219.529 332.411 217.05 331.103 214.578C330.477 213.394 329.857 212.207 329.24 211.017C327.46 207.592 325.636 204.197 323.775 200.82C322.774 198.985 321.813 197.128 320.854 195.268C314.72 183.394 307.807 172.008 300.731 160.743C300.312 160.072 300.312 160.072 299.884 159.386C299.173 158.25 298.456 157.119 297.735 155.99C297.165 155.096 297.165 155.096 296.585 154.184C295.653 152.737 295.653 152.737 293.883 152.293C290.918 151.986 287.94 151.835 284.966 151.661C284.514 151.634 284.062 151.607 283.596 151.58C273.373 150.988 263.161 150.9 252.925 150.928C250.44 150.935 247.955 150.931 245.469 150.924C235.284 150.9 225.126 151.053 214.954 151.623ZM324.128 155.914C324.905 158.139 325.861 160.061 327.057 162.066C327.418 162.677 327.779 163.288 328.151 163.918C328.737 164.905 328.737 164.905 329.335 165.912C337.481 179.756 344.891 194.014 352.09 208.428C352.467 208.428 352.843 208.428 353.231 208.428C358.327 195.74 362.718 182.839 366.927 169.797C367.147 169.153 367.366 168.509 367.592 167.846C368.178 166.081 368.178 166.081 368.068 163.761C359.179 161.618 350.274 159.735 341.283 158.14C340.852 158.063 340.42 157.985 339.976 157.905C334.7 156.96 329.479 156.228 324.128 155.914ZM168.358 156.579C167.914 156.65 167.47 156.721 167.012 156.793C165.563 157.025 164.115 157.262 162.667 157.499C162.174 157.579 161.681 157.659 161.174 157.742C146.311 159.902 146.311 159.902 131.816 163.761C132.143 166.663 132.7 169.268 133.595 172.03C133.716 172.407 133.838 172.785 133.963 173.173C134.361 174.401 134.764 175.627 135.168 176.852C135.306 177.273 135.444 177.694 135.586 178.127C138.934 188.358 142.56 198.503 146.653 208.428C147.03 208.428 147.406 208.428 147.794 208.428C147.96 208.083 148.126 207.739 148.296 207.383C152.5 198.666 156.977 190.169 161.69 181.749C162.568 180.172 163.433 178.589 164.292 177C167.277 171.479 170.367 166.057 173.641 160.721C174.056 160.04 174.056 160.04 174.479 159.345C174.726 158.944 174.973 158.543 175.228 158.129C175.849 157.138 175.849 157.138 175.757 155.914C173.245 155.823 170.833 156.178 168.358 156.579ZM389.753 169.797C388.377 173.251 387.153 176.746 386.031 180.301C385.903 180.707 385.775 181.113 385.643 181.531C385.372 182.39 385.101 183.249 384.829 184.109C382.453 191.612 379.941 199.044 377.162 206.392C376.83 207.272 376.499 208.153 376.171 209.035C374.401 213.789 372.53 218.406 370.278 222.929C365.999 231.045 365.999 231.045 365.804 239.987C366.895 243.136 368.383 246.01 369.977 248.902C371.544 251.851 372.733 254.953 373.953 258.074C374.209 258.71 374.465 259.346 374.729 260.001C379.733 272.545 383.963 285.511 387.837 298.491C388.001 299.031 388.165 299.57 388.334 300.126C388.472 300.592 388.61 301.057 388.752 301.537C389.106 302.711 389.106 302.711 390.324 303.194C391.599 302.911 391.599 302.911 393.055 302.387C393.904 302.1 393.904 302.1 394.771 301.807C395.387 301.592 396.002 301.378 396.637 301.157C397.277 300.935 397.917 300.714 398.577 300.486C400.584 299.787 402.588 299.078 404.591 298.365C405.186 298.154 405.781 297.944 406.395 297.727C427.591 290.162 448.884 280.045 465.08 263.356C465.494 262.963 465.907 262.57 466.333 262.165C472.631 256.013 477.45 247.086 478.206 238.004C478.262 232.987 477.276 228.686 475.352 224.122C475.137 223.603 474.923 223.084 474.701 222.549C462.815 196.912 429.41 183.385 405.743 174.821C397.869 171.429 397.869 171.429 389.753 169.797ZM104.83 171.111C104.415 171.256 104 171.401 103.573 171.55C102.214 172.028 100.858 172.515 99.5023 173.004C99.0384 173.17 98.5745 173.335 98.0966 173.506C72.3292 182.719 38.2999 195.742 24.8546 223.131C21.4944 230.417 20.7454 237.828 23.1767 245.587C25.9013 252.664 29.8254 257.967 34.8039 263.356C35.1724 263.783 35.541 264.21 35.9207 264.65C41.358 270.802 48.4955 275.484 55.3476 279.653C55.9854 280.046 55.9854 280.046 56.636 280.447C73.3468 290.67 91.5178 297.915 110.131 303.194C111.852 298.83 113.29 294.413 114.66 289.914C119.303 274.985 124.794 260.427 130.802 246.059C131.069 245.402 131.337 244.746 131.612 244.069C132.104 242.901 132.628 241.747 133.192 240.616C134.185 238.499 134.822 237.019 134.385 234.653C133.746 232.897 132.99 231.263 132.173 229.592C131.571 228.259 130.973 226.924 130.378 225.588C129.893 224.512 129.893 224.512 129.398 223.414C127.552 219.237 125.969 214.938 124.362 210.654C124.108 209.98 124.108 209.98 123.849 209.293C120.119 199.385 116.607 189.39 113.519 179.236C113.337 178.64 113.155 178.044 112.967 177.43C112.632 176.322 112.302 175.212 111.981 174.099C111.605 172.848 111.16 171.621 110.701 170.401C108.444 169.605 106.992 170.332 104.83 171.111ZM146.653 264.563C143.062 273.552 139.717 282.592 136.666 291.801C136.521 292.239 136.376 292.678 136.226 293.13C135.549 295.179 134.876 297.23 134.21 299.283C133.796 300.557 133.378 301.831 132.953 303.101C132.234 305.279 131.816 306.898 131.816 309.23C142.942 311.678 154.064 314.088 165.306 315.869C165.704 315.933 166.102 315.997 166.512 316.062C171.397 316.872 171.397 316.872 176.327 317.077C174.428 313.564 172.496 310.083 170.446 306.668C163.836 295.652 157.856 284.224 152.005 272.743C150.61 270.011 149.201 267.287 147.794 264.563C147.418 264.563 147.041 264.563 146.653 264.563ZM352.09 264.563C351.855 265.036 351.621 265.508 351.379 265.995C346.135 276.531 340.736 286.928 334.97 297.158C334.35 298.266 333.731 299.374 333.111 300.482C330.297 305.497 327.442 310.448 324.315 315.254C323.505 316.314 323.505 316.314 323.557 317.077C329.22 316.707 334.764 315.823 340.356 314.851C340.812 314.772 341.268 314.694 341.738 314.613C350.572 313.09 359.326 311.26 368.068 309.23C367.733 306.197 367.119 303.514 366.185 300.607C365.986 299.986 365.986 299.986 365.783 299.352C365.348 298.002 364.908 296.656 364.466 295.309C364.316 294.848 364.166 294.387 364.012 293.913C359.221 278.98 359.221 278.98 353.231 264.563C352.855 264.563 352.478 264.563 352.09 264.563ZM125.539 330.959C122.502 343.113 120.457 355.36 118.691 367.779C118.605 368.36 118.52 368.94 118.432 369.538C115.448 390.444 115.091 418.404 126.68 436.59C131.402 443.188 137.116 447.854 144.941 449.266C169.946 451.768 194.283 434.558 212.691 418.463C213.909 417.379 215.114 416.28 216.316 415.176C217.95 413.685 219.618 412.252 221.302 410.824C223.59 408.857 225.684 406.789 227.733 404.55C229.228 402.969 230.825 401.534 232.443 400.098C233.525 399.11 233.525 399.11 234.534 397.356C234.017 396.779 233.5 396.203 232.967 395.609C229.413 391.626 225.936 387.632 222.702 383.35C221.193 381.38 219.627 379.466 218.057 377.55C214.93 373.718 211.949 369.782 209.025 365.776C208.321 364.811 207.613 363.85 206.904 362.889C203.644 358.445 200.48 353.93 197.339 349.39C194.476 344.425 194.476 344.425 190.101 341.643C189.451 341.567 189.451 341.567 188.787 341.49C188.29 341.431 187.794 341.372 187.282 341.312C186.466 341.218 186.466 341.218 185.634 341.122C184.458 340.981 183.282 340.84 182.106 340.698C181.484 340.624 180.861 340.549 180.22 340.473C161.827 338.255 143.614 335.215 125.539 330.959ZM370.217 331.756C361.554 333.712 352.879 335.555 344.136 337.071C343.711 337.145 343.286 337.219 342.848 337.295C337.437 338.223 332.018 338.983 326.569 339.617C326.008 339.683 325.447 339.749 324.869 339.817C322.121 340.136 319.373 340.441 316.622 340.724C315.623 340.834 314.623 340.945 313.624 341.056C312.942 341.119 312.942 341.119 312.245 341.183C309.474 341.502 307.908 342.082 305.867 344.239C304.95 345.482 304.098 346.711 303.263 348.011C302.762 348.771 302.259 349.53 301.756 350.289C301.365 350.88 301.365 350.88 300.966 351.484C296.477 358.199 291.631 364.611 286.698 370.964C285.642 372.33 284.609 373.713 283.575 375.098C279.411 380.618 274.998 385.93 270.513 391.16C268.768 393.203 267.057 395.277 265.35 397.356C268.408 401.399 271.974 404.792 275.622 408.221C275.95 408.531 276.277 408.841 276.615 409.16C281.765 414.02 287.093 418.571 292.63 422.928C293.468 423.588 294.304 424.25 295.138 424.915C301.485 429.965 308.013 434.4 314.997 438.401C315.39 438.627 315.782 438.854 316.187 439.087C328.995 446.39 344.406 452.569 359.045 448.323C362.464 446.994 365.275 445.078 368.068 442.626C368.603 442.173 368.603 442.173 369.147 441.711C378.577 432.816 381.26 416.619 382.335 403.996C382.418 402.249 382.441 400.505 382.451 398.756C382.455 398.272 382.459 397.789 382.463 397.29C382.473 395.727 382.477 394.165 382.478 392.603C382.478 392.065 382.478 391.527 382.479 390.973C382.468 381.716 381.961 372.716 380.623 363.554C380.522 362.848 380.421 362.141 380.317 361.413C378.819 351.131 376.793 341.034 374.346 330.959C372.982 330.959 371.536 331.456 370.217 331.756ZM221.409 344.239C222.535 346.62 223.88 348.552 225.44 350.614C225.721 350.989 226.002 351.364 226.292 351.751C227.135 352.871 227.98 353.988 228.828 355.104C229.262 355.676 229.696 356.247 230.143 356.837C233.324 360.984 236.61 365.034 239.905 369.079C240.843 370.233 241.777 371.389 242.711 372.547C243.174 373.121 243.174 373.121 243.647 373.707C244.24 374.441 244.831 375.175 245.422 375.91C246.691 377.48 247.957 379.029 249.372 380.455C251.636 379.511 253.033 377.847 254.614 375.966C254.891 375.642 255.167 375.318 255.452 374.985C257.618 372.425 259.683 369.787 261.719 367.11C262.95 365.517 264.211 363.962 265.489 362.411C268.434 358.832 271.251 355.171 273.981 351.407C274.458 350.752 274.458 350.752 274.944 350.085C275.387 349.467 275.387 349.467 275.84 348.837C276.232 348.291 276.232 348.291 276.632 347.735C277.482 346.478 277.482 346.478 278.475 344.239C259.643 344.239 240.812 344.239 221.409 344.239Z" fill="#61DAFB"/>
</svg>
