<svg width="500" height="300" viewBox="0 0 500 300" fill="none" xmlns="http://www.w3.org/2000/svg">
<g clip-path="url(#clip0_34_13)">
<path d="M248.36 -0.111308C249.366 -0.109019 250.373 -0.110731 251.379 -0.116435C260.649 -0.168637 269.867 0.324283 279 2.0002C279.249 2.04556 279.497 2.09092 279.753 2.13765C281.592 2.47886 283.422 2.85487 285.25 3.2502C285.547 3.31433 285.843 3.37846 286.149 3.44454C297.921 6.02187 309.469 10.196 319.915 16.2668C320.629 16.68 321.348 17.07 322.078 17.4533C328.334 20.8539 334.304 25.1787 339.75 29.7502C340.192 30.1099 340.635 30.4693 341.078 30.8283C343.659 32.9421 346.171 35.1244 348.616 37.3942C349.025 37.7734 349.436 38.1506 349.848 38.5275C351.128 39.7018 352.397 40.8806 353.613 42.1213C354.152 42.6493 354.725 43.1318 355.307 43.6115C355.755 44.0046 356.176 44.4182 356.595 44.842C357.118 45.3688 357.645 45.8908 358.172 46.4133C358.615 46.8537 359.057 47.2941 359.5 47.7346C359.722 47.9548 359.945 48.1751 360.174 48.4021C362.002 50.2234 362.002 50.2234 362.656 51.0481C363.13 51.6078 363.554 52.0254 364.108 52.4914C365.369 53.584 366.541 54.7628 367.715 55.9467C368.119 56.3533 368.523 56.7591 368.927 57.1646C369.931 58.1714 370.933 59.1795 371.935 60.1875C372.785 61.0423 373.635 61.8965 374.486 62.75C374.881 63.1465 375.275 63.5437 375.669 63.941C376.986 65.2652 378.328 66.539 379.75 67.7502C380.194 68.1551 380.637 68.5612 381.078 68.969C382.429 70.1992 383.826 71.3565 385.25 72.5002C385.539 72.737 385.828 72.974 386.116 73.2111C388.329 75.0199 390.608 76.6857 393 78.2502C393.197 78.3795 393.393 78.5087 393.596 78.6419C396.929 80.8179 400.359 82.6431 404 84.2502C404.192 84.3358 404.384 84.4215 404.582 84.5097C409.135 86.5066 414.094 87.6729 418.998 88.4204C419.534 88.5056 420.066 88.6024 420.6 88.7014C425.543 89.607 430.486 89.5666 435.5 89.5002C435.702 89.4984 435.904 89.4966 436.112 89.4947C445.642 89.3644 455.666 86.2729 464 81.7502C464.295 81.5931 464.295 81.5931 464.595 81.4328C468.328 79.4417 471.867 77.2972 475.25 74.7502C475.504 74.5604 475.758 74.3706 476.02 74.175C477.68 72.9227 479.275 71.6122 480.833 70.2338C481.519 69.6325 482.151 69.0991 483 68.7502C483 68.5852 483 68.4202 483 68.2502C483.367 67.8801 483.367 67.8801 483.875 67.4533C484.056 67.2993 484.237 67.1452 484.423 66.9865C484.613 66.826 484.804 66.6656 485 66.5002C485.371 66.1836 485.741 65.8659 486.109 65.5471C486.274 65.4063 486.439 65.2654 486.608 65.1203C487.028 64.7665 487.028 64.7665 487.25 64.2502C487.415 64.2502 487.58 64.2502 487.75 64.2502C487.83 64.0472 487.83 64.0472 487.911 63.84C488.373 63.0369 489.01 62.4489 489.672 61.8127C491.068 60.4428 492.442 59.0872 493.531 57.4533C494.035 56.698 494.608 56.1406 495.25 55.5002C496.691 53.8361 498.013 52.0847 499.312 50.3098C499.457 50.1251 499.601 49.9405 499.75 49.7502C499.832 49.7502 499.915 49.7502 500 49.7502C500.146 51.534 499.613 53.1258 499.125 54.8283C499.034 55.152 498.942 55.4756 498.851 55.7993C498.572 56.7843 498.287 57.7675 498 58.7502C497.916 59.0383 497.832 59.3263 497.745 59.6231C495.197 68.2747 491.89 76.6163 488 84.7502C487.893 84.9734 487.787 85.1965 487.677 85.4265C485.368 90.2282 482.761 94.8713 479.799 99.3012C479.526 99.711 479.258 100.124 478.99 100.537C476.184 104.845 472.939 108.931 469.5 112.75C469.244 113.04 469.244 113.04 468.983 113.336C467.627 114.865 466.206 116.316 464.75 117.75C464.12 118.377 463.493 119.007 462.873 119.645C461.545 121.001 460.191 122.253 458.704 123.438C457.958 124.034 457.229 124.649 456.5 125.266C454.317 127.081 452.013 128.672 449.656 130.25C449.444 130.393 449.232 130.535 449.013 130.682C441.01 136.003 432.371 140.225 423.25 143.25C422.998 143.335 422.745 143.419 422.485 143.507C417.811 145.057 413.054 146.191 408.25 147.25C408.01 147.304 407.769 147.358 407.522 147.414C402.751 148.475 397.853 148.97 393 149.5C392.805 149.522 392.609 149.544 392.408 149.566C375.067 151.473 357.176 150.483 340.132 146.881C339.587 146.768 339.041 146.664 338.493 146.567C331.936 145.378 325.384 143.071 319.25 140.5C318.858 140.345 318.465 140.19 318.072 140.035C311.602 137.451 305.412 134.173 299.5 130.5C299.254 130.351 299.009 130.201 298.756 130.047C295.317 127.918 292.026 125.517 288.845 123.022C288.601 122.831 288.601 122.831 288.352 122.637C288.211 122.526 288.07 122.414 287.924 122.3C287.499 121.983 287.499 121.983 286.983 121.747C286.275 121.385 285.811 120.811 285.25 120.25C284.936 120.021 284.618 119.797 284.297 119.578C283.902 119.292 283.902 119.292 283.5 119C283.5 118.835 283.5 118.67 283.5 118.5C283.32 118.443 283.139 118.387 282.953 118.328C282.104 117.932 281.654 117.421 281 116.75C280.518 116.294 280.035 115.84 279.547 115.391C279.416 115.27 279.285 115.149 279.15 115.025C278.278 114.23 277.374 113.519 276.415 112.831C275.763 112.311 275.283 111.64 274.75 111C274.433 110.753 274.109 110.514 273.781 110.281C272.85 109.614 272.163 108.863 271.431 107.988C270.888 107.374 270.289 106.865 269.66 106.344C268.094 105.031 268.094 105.031 267.75 104C267.585 104 267.42 104 267.25 104C267.111 103.825 266.972 103.65 266.828 103.469C266.366 102.895 265.981 102.505 265.422 102.047C264.586 101.353 263.891 100.589 263.193 99.757C262.655 99.1418 262.082 98.5748 261.5 98.0002C261.164 97.6645 260.828 97.3285 260.492 96.9924C260.31 96.8103 260.128 96.6282 259.94 96.4406C259.044 95.5438 258.147 94.647 257.25 93.7502C257.053 93.5537 256.857 93.3573 256.654 93.1549C256.075 92.575 255.496 91.994 254.919 91.4124C254.359 90.8495 253.799 90.2872 253.238 89.7249C252.945 89.4304 252.652 89.1356 252.359 88.8407C250.784 87.2544 249.212 85.6903 247.5 84.2502C247.109 83.9071 246.718 83.5635 246.328 83.219C246.152 83.0636 245.976 82.9083 245.794 82.7483C245.409 82.3955 245.034 82.0316 244.666 81.6604C241.634 78.6551 238.191 76.0522 234.766 73.5158C234.615 73.4036 234.464 73.2915 234.309 73.1759C233.325 72.4543 232.315 71.846 231.25 71.2502C230.847 70.9927 230.446 70.7324 230.047 70.469C222.608 65.7299 214.633 63.0994 206 61.5002C205.779 61.4592 205.558 61.4181 205.33 61.3758C197.818 60.0116 189.512 59.8568 182 61.2502C181.826 61.2807 181.651 61.3113 181.472 61.3427C176.517 62.2156 171.656 63.5866 167 65.5002C166.842 65.5645 166.684 65.6288 166.521 65.695C158.216 69.1027 150.317 74.131 143.75 80.2502C143.418 80.5433 143.085 80.835 142.75 81.1252C142.587 81.2676 142.425 81.4101 142.257 81.5568C141.912 81.8585 141.566 82.1593 141.22 82.4592C139.788 83.7195 138.429 85.0448 137.078 86.3908C136.9 86.5679 136.722 86.7449 136.538 86.9273C135.531 87.9376 134.567 88.9725 133.636 90.0531C133.148 90.6183 132.645 91.1683 132.141 91.719C130.716 93.3013 129.407 94.9607 128.123 96.6584C127.888 96.9661 127.888 96.9661 127.649 97.28C127.334 97.6941 127.02 98.1098 126.709 98.5271C126.564 98.7174 126.418 98.9077 126.269 99.1037C126.139 99.2763 126.009 99.4489 125.875 99.6268C125.5 100 125.5 100 124.75 100C126.311 93.4644 128.215 87.0698 130.5 80.7502C130.581 80.5256 130.662 80.301 130.746 80.0695C134.573 69.5578 139.44 59.2594 145.75 50.0002C145.903 49.7659 146.056 49.5316 146.213 49.2902C149.017 44.9916 152.223 40.876 155.701 37.1018C156.008 36.7657 156.312 36.4276 156.608 36.0822C157.796 34.6976 159.058 33.3959 160.348 32.1063C160.708 31.7451 161.067 31.382 161.425 31.0188C161.653 30.7909 161.88 30.5631 162.114 30.3283C162.32 30.1211 162.527 29.9139 162.739 29.7004C163.25 29.2502 163.25 29.2502 163.75 29.2502C163.75 29.0852 163.75 28.9202 163.75 28.7502C164.127 28.4065 164.521 28.0818 164.922 27.7658C165.839 27.034 166.742 26.2957 167.627 25.5246C172.091 21.6549 177.129 18.4822 182.24 15.5446C182.722 15.2665 183.2 14.9836 183.678 14.6994C189.831 11.0843 196.546 8.51625 203.312 6.3127C203.486 6.25598 203.659 6.19926 203.838 6.14082C208.194 4.72252 212.601 3.62075 217.094 2.73458C217.31 2.69171 217.526 2.64884 217.749 2.60467C227.91 0.59837 238.02 -0.135935 248.36 -0.111308Z" fill="#17BAB8"/>
<path d="M142.248 150.45C142.719 150.497 143.19 150.541 143.661 150.585C160.123 152.134 176.595 156.51 191.25 164.25C191.603 164.434 191.956 164.617 192.31 164.801C196.152 166.806 199.825 168.994 203.441 171.382C203.908 171.689 204.376 171.994 204.846 172.298C206.801 173.574 208.661 174.968 210.517 176.382C210.962 176.721 211.408 177.057 211.854 177.392C213.599 178.71 215.264 180.1 216.915 181.532C217.644 182.163 218.389 182.771 219.141 183.375C220.596 184.557 221.961 185.826 223.329 187.107C223.757 187.506 224.186 187.902 224.617 188.297C225.876 189.451 227.126 190.608 228.321 191.829C228.755 192.255 229.205 192.649 229.667 193.044C230.784 194.016 231.83 195.048 232.873 196.099C233.176 196.402 233.176 196.402 233.485 196.711C233.92 197.148 234.355 197.584 234.789 198.021C235.478 198.713 236.168 199.404 236.858 200.095C238.447 201.687 240.035 203.28 241.622 204.874C243.195 206.452 244.768 208.029 246.342 209.606C247.02 210.285 247.696 210.965 248.373 211.645C248.791 212.064 249.209 212.482 249.627 212.901C249.906 213.182 249.906 213.182 250.191 213.469C251.194 214.473 252.22 215.434 253.297 216.357C254.08 217.037 254.826 217.756 255.578 218.469C257.084 219.883 258.627 221.221 260.25 222.5C260.516 222.714 260.782 222.928 261.048 223.142C263.296 224.945 265.616 226.633 268 228.25C268.185 228.375 268.369 228.501 268.559 228.63C274.878 232.879 281.876 235.693 289.25 237.5C289.504 237.563 289.759 237.625 290.021 237.69C296.813 239.313 303.551 239.595 310.5 239.5C310.698 239.498 310.896 239.496 311.1 239.494C316.348 239.422 321.741 238.28 326.75 236.75C326.96 236.686 327.17 236.622 327.386 236.557C333.945 234.533 340.26 231.513 346 227.75C346.242 227.593 346.485 227.435 346.734 227.273C353.173 223.048 359.808 217.712 364.828 211.812C365.527 211.001 366.244 210.21 366.969 209.422C368.199 208.071 369.354 206.672 370.5 205.25C370.776 204.913 371.052 204.577 371.328 204.24C371.62 203.884 371.911 203.528 372.203 203.172C372.341 203.004 372.479 202.837 372.621 202.664C373.226 201.923 373.802 201.189 374.315 200.38C374.459 200.172 374.602 199.964 374.75 199.75C374.915 199.75 375.08 199.75 375.25 199.75C375.089 201.666 374.572 203.468 374.047 205.312C373.998 205.484 373.95 205.656 373.9 205.833C370.559 217.619 366.297 229.262 360.3 239.963C359.928 240.628 359.565 241.298 359.203 241.969C358.969 242.396 358.735 242.823 358.5 243.25C358.37 243.491 358.24 243.733 358.106 243.981C354.93 249.735 351.014 255.25 346.75 260.25C346.629 260.393 346.509 260.536 346.384 260.683C344.778 262.582 343.135 264.406 341.356 266.143C340.818 266.682 340.32 267.232 339.828 267.812C339.105 268.66 338.315 269.379 337.465 270.098C337.047 270.46 336.663 270.835 336.281 271.234C335.75 271.75 335.75 271.75 335.25 271.75C335.25 271.915 335.25 272.08 335.25 272.25C334.858 272.609 334.448 272.95 334.031 273.281C333.777 273.484 333.523 273.687 333.261 273.896C332.884 274.195 332.884 274.195 332.5 274.5C332.308 274.658 332.117 274.816 331.919 274.978C329.856 276.671 327.678 278.21 325.5 279.75C325.349 279.858 325.198 279.965 325.043 280.076C320.526 283.276 315.552 286.011 310.505 288.271C310.028 288.487 309.558 288.713 309.088 288.944C306.455 290.226 303.733 291.235 300.982 292.233C300.326 292.472 299.671 292.716 299.017 292.962C283.825 298.575 267.372 300.151 251.298 300.098C249.995 300.093 248.692 300.096 247.389 300.1C230.277 300.148 213.616 297.625 197.5 291.75C197.254 291.661 197.008 291.572 196.755 291.48C194.321 290.595 191.928 289.635 189.562 288.578C189.263 288.444 189.263 288.444 188.958 288.308C187.78 287.771 186.654 287.174 185.528 286.536C184.791 286.136 184.023 285.823 183.25 285.5C182.542 285.161 181.841 284.807 181.141 284.453C180.958 284.361 180.775 284.269 180.586 284.174C180.141 283.95 179.695 283.725 179.25 283.5C179.25 283.335 179.25 283.17 179.25 283C179.078 282.936 178.906 282.873 178.729 282.808C172.023 279.976 165.734 274.725 160.136 270.161C159.36 269.518 159.36 269.518 158.5 269C158.5 268.835 158.5 268.67 158.5 268.5C158.362 268.442 158.224 268.383 158.082 268.323C157.347 267.915 156.802 267.402 156.188 266.828C155.942 266.601 155.695 266.373 155.449 266.146C155.218 265.933 154.988 265.72 154.75 265.5C153.386 264.272 151.972 263.117 150.531 261.979C150.356 261.821 150.181 261.663 150 261.5C150 261.335 150 261.17 150 261C149.835 261 149.67 261 149.5 261C149.072 260.595 148.657 260.176 148.25 259.75C148.044 259.544 147.838 259.337 147.625 259.125C141.75 253.25 141.75 253.25 141.092 252.583C140.627 252.125 140.163 251.706 139.656 251.297C138.831 250.6 138.136 249.833 137.443 249.007C136.906 248.392 136.329 247.826 135.75 247.25C135.369 246.868 134.988 246.485 134.607 246.103C133.522 245.014 132.437 243.926 131.351 242.837C130.696 242.182 130.042 241.526 129.389 240.87C128.752 240.231 128.115 239.592 127.478 238.954C127.122 238.597 126.766 238.239 126.41 237.881C125.273 236.744 124.124 235.639 122.901 234.595C122.408 234.17 121.952 233.718 121.5 233.25C120.541 232.28 119.536 231.386 118.5 230.5C118.239 230.273 117.979 230.047 117.719 229.82C116.197 228.499 114.658 227.205 113.078 225.953C112.931 225.836 112.784 225.718 112.633 225.597C112.006 225.106 111.512 224.754 110.75 224.5C110.75 224.335 110.75 224.17 110.75 224C110.604 223.93 110.458 223.86 110.308 223.788C109.781 223.516 109.306 223.218 108.817 222.883C108.64 222.762 108.462 222.641 108.279 222.516C108.089 222.387 107.899 222.258 107.703 222.125C94.6911 213.4 80.2617 210.29 64.75 210.5C64.4413 210.503 64.4413 210.503 64.1263 210.505C48.3619 210.711 32.5808 218.426 20.75 228.5C20.4822 228.724 20.2143 228.949 19.9463 229.173C16.2678 232.269 12.6003 235.546 9.47363 239.207C9.00655 239.742 8.52437 240.262 8.03857 240.78C6.099 242.858 4.36445 245.075 2.67773 247.361C2.54123 247.546 2.40474 247.73 2.2641 247.92C1.99804 248.281 1.73354 248.643 1.47076 249.006C1.15896 249.429 0.830904 249.841 0.5 250.25C0.335 250.25 0.17 250.25 0 250.25C0.158158 248.836 0.391898 247.466 0.703125 246.078C0.760408 245.81 0.760408 245.81 0.818848 245.538C1.19859 243.828 1.72003 242.168 2.25 240.5C2.30485 240.327 2.3597 240.153 2.41621 239.975C2.78707 238.805 3.16158 237.636 3.53851 236.468C3.66918 236.062 3.7993 235.656 3.92889 235.25C4.60498 233.132 5.29706 231.047 6.18243 229.005C6.55403 228.121 6.88481 227.225 7.21484 226.325C8.00188 224.197 8.89214 222.12 9.8125 220.047C9.89476 219.861 9.97702 219.675 10.0618 219.484C11.2466 216.812 12.4746 214.183 13.8995 211.63C14.318 210.878 14.7286 210.121 15.1396 209.364C16.8021 206.315 18.5117 203.315 20.4568 200.436C20.734 200.024 21.0049 199.607 21.2754 199.19C22.5058 197.301 23.8562 195.52 25.25 193.75C25.4893 193.446 25.7285 193.141 25.9678 192.837C26.3243 192.383 26.681 191.93 27.0388 191.477C27.6733 190.674 28.2895 189.861 28.8906 189.031C29.0917 188.773 29.2928 188.516 29.5 188.25C29.665 188.25 29.83 188.25 30 188.25C30.0673 188.102 30.1346 187.955 30.2039 187.802C30.5003 187.249 30.8081 186.864 31.2373 186.409C31.3857 186.251 31.5341 186.093 31.687 185.93C31.847 185.762 32.007 185.595 32.1719 185.422C32.3375 185.247 32.5032 185.072 32.6739 184.892C37.4283 179.894 37.4283 179.894 40 177.75C40.3601 177.44 40.3601 177.44 40.7275 177.124C44.7823 173.64 49.0906 170.535 53.5938 167.656C53.8164 167.513 54.0391 167.371 54.2685 167.224C59.9061 163.656 66.0198 160.851 72.25 158.5C72.6557 158.343 73.0613 158.186 73.4668 158.028C95.0032 149.768 119.458 148.169 142.248 150.45Z" fill="#18B6B9"/>
</g>
<defs>
<clipPath id="clip0_34_13">
<rect width="500" height="300" fill="white"/>
</clipPath>
</defs>
</svg>
