<svg width="500" height="363" viewBox="0 0 500 363" fill="none" xmlns="http://www.w3.org/2000/svg">
<path d="M81.4285 10.1641C192.686 10.1641 303.943 10.1641 418.571 10.1641C418.571 123.246 418.571 236.328 418.571 352.836C307.314 352.836 196.057 352.836 81.4285 352.836C81.4285 239.754 81.4285 126.673 81.4285 10.1641Z" fill="#007ACC"/>
<path d="M335.938 166.027C337.02 166.04 337.02 166.04 338.125 166.052C352.038 166.311 364.019 169.443 374.152 179.594C380.406 186.216 380.406 186.216 382.143 190.212C381.226 193.007 380.163 193.444 377.76 195.042C377.008 195.546 376.256 196.05 375.481 196.569C374.681 197.097 373.881 197.625 373.08 198.153C372.302 198.673 371.523 199.193 370.721 199.728C369.261 200.703 367.799 201.676 366.335 202.645C364.869 203.618 363.42 204.616 361.981 205.629C360 206.91 360 206.91 358.449 206.922C356.706 205.938 355.942 204.769 354.821 203.099C351.97 199.176 348.833 196.835 344.286 195.294C335.679 194.358 335.679 194.358 327.857 197.245C325.365 199.515 324.413 202.033 324.071 205.387C324.05 210.807 324.461 214.079 328.08 218.254C331.584 221.401 335.376 223.526 339.598 225.469C340.273 225.785 340.273 225.785 340.961 226.108C343.12 227.116 345.288 228.089 347.472 229.039C364.175 236.328 382.121 244.664 389.286 262.812C393.193 273.602 393.136 287.628 388.962 298.293C383.543 309.434 374.308 317.364 362.857 321.618C355.495 324.096 348.744 325.007 341.015 324.941C339.38 324.931 337.748 324.955 336.113 324.983C326.112 325.035 316.789 322.638 307.857 317.988C307.254 317.702 306.651 317.415 306.03 317.12C295.989 312.054 288.231 303.208 282.857 293.304C282.857 292.825 282.857 292.346 282.857 291.852C283.39 291.541 283.922 291.23 284.471 290.91C286.474 289.741 288.476 288.57 290.478 287.399C291.339 286.895 292.201 286.392 293.063 285.889C294.312 285.16 295.56 284.43 296.808 283.699C297.605 283.232 298.403 282.766 299.224 282.286C301.107 281.155 302.932 279.973 304.754 278.747C305.937 278.047 305.937 278.047 307.143 277.332C309.862 278.253 310.233 279.28 311.786 281.688C316.453 288.37 322.184 293.218 330 295.482C332.753 295.861 335.44 295.89 338.214 295.845C339.252 295.862 339.252 295.862 340.31 295.879C346.111 295.848 351.143 294.626 355.67 290.809C358.468 287.275 359.603 284.938 359.643 280.327C359.665 279.475 359.687 278.624 359.71 277.746C359.098 274.007 357.48 271.546 354.601 269.142C353.379 268.295 352.138 267.541 350.848 266.805C350.385 266.532 349.922 266.258 349.444 265.976C344.746 263.269 339.836 261.106 334.855 259.002C331.772 257.69 328.741 256.264 325.714 254.826C325.035 254.509 324.355 254.192 323.655 253.865C310.213 247.354 300.255 238.556 294.18 224.632C290.514 214.086 290.844 200.713 295.424 190.604C299.654 182.205 305.704 175.267 314.286 171.336C314.806 171.079 315.326 170.821 315.862 170.556C322.51 167.373 328.581 165.89 335.938 166.027Z" fill="#FCFDFE"/>
<path d="M160.27 167.614C160.751 167.613 161.232 167.612 161.728 167.611C163.353 167.608 164.978 167.61 166.603 167.612C167.763 167.611 168.923 167.61 170.083 167.608C173.243 167.605 176.402 167.606 179.562 167.609C182.861 167.611 186.16 167.609 189.459 167.608C195 167.606 200.542 167.608 206.083 167.612C212.499 167.616 218.915 167.614 225.331 167.61C230.829 167.607 236.328 167.606 241.826 167.608C245.114 167.61 248.403 167.61 251.691 167.607C254.782 167.605 257.873 167.607 260.964 167.611C262.101 167.612 263.239 167.612 264.377 167.61C265.923 167.608 267.47 167.61 269.016 167.614C269.884 167.614 270.751 167.615 271.645 167.615C273.571 167.706 273.571 167.706 274.286 168.432C274.349 170.473 274.368 172.497 274.355 174.538C274.355 175.08 274.354 175.621 274.353 176.179C274.35 178.21 274.34 180.241 274.33 182.272C274.316 186.809 274.301 191.346 274.286 196.02C259.671 196.02 245.057 196.02 230 196.02C230 237.947 230 279.873 230 323.07C219.864 323.07 209.729 323.07 199.286 323.07C199.286 281.144 199.286 239.217 199.286 196.02C184.671 196.02 170.057 196.02 155 196.02C154.985 191.483 154.971 186.946 154.955 182.272C154.949 180.838 154.942 179.404 154.936 177.927C154.934 176.797 154.932 175.668 154.93 174.538C154.927 173.946 154.923 173.354 154.919 172.744C154.919 171.307 154.955 169.869 155 168.432C156.323 167.087 158.501 167.615 160.27 167.614Z" fill="#FCFDFE"/>
</svg>
