<svg width="500" height="433" viewBox="0 0 500 433" fill="none" xmlns="http://www.w3.org/2000/svg">
<g clip-path="url(#clip0_28_9)">
<path d="M0 6.42759e-05C24.4665 -0.123771 48.9331 -0.21918 73.3999 -0.276327C76.2872 -0.283078 79.1745 -0.290096 82.0618 -0.297253C82.4927 -0.298315 82.4927 -0.298315 82.9324 -0.299398C92.2458 -0.322464 101.559 -0.363119 110.872 -0.412894C120.714 -0.465399 130.556 -0.497864 140.398 -0.50919C146.294 -0.516623 152.19 -0.540116 158.086 -0.584034C162.127 -0.612603 166.168 -0.621301 170.209 -0.614262C172.543 -0.610788 174.875 -0.61618 177.208 -0.645135C179.344 -0.67145 181.478 -0.672828 183.614 -0.654301C184.387 -0.652011 185.16 -0.658905 185.932 -0.675866C188.233 -0.723435 190.294 -0.697324 192.5 6.42759e-05C194.14 1.63788 194.92 3.27909 195.833 5.41256C196.314 6.25732 196.803 7.09705 197.306 7.92853C197.797 8.78082 198.287 9.63359 198.776 10.4868C199.184 11.1958 199.592 11.9048 200 12.6138C200.419 13.3414 200.837 14.0693 201.255 14.7972C202.57 17.0833 203.889 19.3666 205.208 21.6501C205.729 22.5521 206.25 23.4542 206.771 24.3563C207.029 24.8028 207.286 25.2494 207.552 25.7094C234.896 73.0688 234.896 73.0688 235.678 74.4231C236.196 75.3215 236.715 76.2198 237.234 77.1181C238.569 79.4294 239.902 81.7415 241.234 84.0548C241.777 84.9987 242.321 85.9425 242.865 86.8863C243.254 87.5629 243.254 87.5629 243.652 88.2533C245.254 91.0297 246.877 93.792 248.568 96.5154C249.583 98.1697 249.583 98.1697 249.583 99.0905C249.858 99.0905 250.133 99.0905 250.417 99.0905C250.527 98.7959 250.637 98.5014 250.751 98.1979C251.276 96.9469 251.893 95.8117 252.57 94.6359C252.836 94.1724 253.102 93.7089 253.376 93.2313C253.665 92.7296 253.955 92.228 254.245 91.7263C254.546 91.203 254.846 90.6797 255.147 90.1563C255.92 88.8124 256.694 87.4694 257.469 86.1269C258.156 84.9367 258.842 83.7459 259.528 82.5553C260.814 80.3246 262.103 78.095 263.392 75.8657C264.693 73.6156 265.992 71.3645 267.292 69.1135C267.812 68.2114 268.333 67.3094 268.854 66.4073C269.241 65.7375 269.241 65.7375 269.635 65.0542C272.5 60.0927 275.365 55.1312 278.229 50.1698C278.487 49.7232 278.745 49.2766 279.011 48.8164C279.531 47.915 280.051 47.0136 280.572 46.1122C281.88 43.8471 283.187 41.5816 284.494 39.3155C287.239 34.5541 289.997 29.8005 292.774 25.0573C294.657 21.8346 296.511 18.5956 298.359 15.3528C300.469 11.6515 302.598 7.96201 304.766 4.29363C304.995 3.90527 305.224 3.5169 305.46 3.11676C307.03 0.469682 307.03 0.469683 307.5 6.42759e-05C308.523 -0.0410697 309.534 -0.054803 310.558 -0.0511662C310.883 -0.0516466 311.209 -0.052127 311.544 -0.0526219C312.649 -0.0537352 313.753 -0.0518468 314.858 -0.0500032C315.653 -0.0501846 316.447 -0.0505487 317.241 -0.0510812C319.435 -0.0520173 321.629 -0.0503398 323.823 -0.0482592C326.185 -0.0464691 328.546 -0.0470691 330.908 -0.0473858C335.003 -0.0476046 339.099 -0.0462931 343.194 -0.043956C349.116 -0.0405791 355.037 -0.0394887 360.958 -0.0389649C370.564 -0.0380526 380.17 -0.0352825 389.776 -0.0313447C399.11 -0.0275227 408.444 -0.0245725 417.778 -0.0228063C418.066 -0.0227515 418.353 -0.0226968 418.649 -0.0226403C421.537 -0.0220914 424.425 -0.0215602 427.312 -0.0210421C451.542 -0.0166926 475.771 -0.0093435 500 6.42759e-05C499.446 1.71494 498.834 3.20141 497.923 4.75877C497.549 5.4019 497.549 5.4019 497.168 6.05802C496.765 6.74322 496.765 6.74322 496.354 7.44225C496.072 7.92685 495.789 8.41157 495.507 8.89641C494.784 10.1367 494.059 11.3754 493.333 12.6136C492.228 14.497 491.128 16.3824 490.026 18.2673C489.79 18.6713 489.553 19.0754 489.309 19.4917C487.292 22.9447 485.306 26.4157 483.325 29.8898C481.169 33.6691 478.987 37.432 476.787 41.1858C474.92 44.3766 473.081 47.5829 471.25 50.7943C468.953 54.8224 466.632 58.8351 464.287 62.8358C462.42 66.0266 460.581 69.233 458.75 72.4443C456.442 76.4917 454.111 80.5251 451.757 84.5462C449.193 88.9278 446.657 93.3256 444.121 97.7239C442.818 99.9842 441.513 102.244 440.208 104.503C439.687 105.405 439.167 106.307 438.646 107.209C412.865 151.862 387.083 196.515 354.271 253.347C354.013 253.793 353.755 254.24 353.489 254.7C352.969 255.601 352.449 256.503 351.928 257.404C350.62 259.669 349.313 261.935 348.006 264.201C345.497 268.553 342.981 272.9 340.443 277.235C338.183 281.094 335.957 284.972 333.742 288.857C331.586 292.636 329.404 296.399 327.204 300.153C325.337 303.344 323.498 306.55 321.667 309.762C319.358 313.809 317.028 317.842 314.674 321.863C312.109 326.245 309.573 330.643 307.038 335.041C305.735 337.301 304.43 339.561 303.125 341.82C302.604 342.722 302.083 343.624 301.562 344.527C284.375 374.295 284.375 374.295 267.187 404.064C266.93 404.511 266.672 404.957 266.406 405.417C265.886 406.319 265.365 407.22 264.845 408.122C263.537 410.387 262.229 412.652 260.923 414.918C259.885 416.718 258.846 418.517 257.806 420.315C256.868 421.935 255.934 423.558 255.005 425.184C254.337 426.351 253.666 427.515 252.995 428.68C252.748 429.115 252.501 429.55 252.246 429.998C252.018 430.393 251.79 430.788 251.554 431.195C251.354 431.545 251.154 431.894 250.948 432.255C250.772 432.501 250.597 432.747 250.417 433C250.142 433 249.867 433 249.583 433C249.425 432.724 249.266 432.449 249.102 432.165C248.343 430.847 247.583 429.53 246.823 428.212C246.682 427.968 246.541 427.724 246.396 427.473C244.423 424.052 242.438 420.639 240.443 417.231C238.183 413.371 235.957 409.493 233.742 405.608C231.819 402.237 229.879 398.877 227.917 395.529C225.81 391.934 223.731 388.324 221.667 384.704C219.358 380.657 217.028 376.623 214.674 372.602C212.109 368.22 209.573 363.823 207.038 359.424C205.735 357.164 204.43 354.905 203.125 352.645C202.604 351.743 202.083 350.841 201.562 349.939C201.305 349.492 201.047 349.046 200.781 348.586C175 303.933 149.219 259.28 103.906 180.798C103.386 179.897 102.865 178.995 102.345 178.094C101.037 175.829 99.7292 173.563 98.4228 171.297C95.9136 166.946 93.3972 162.599 90.8594 158.264C88.6002 154.404 86.3736 150.526 84.1582 146.641C82.2355 143.27 80.2955 139.91 78.3333 136.562C76.2265 132.966 74.1475 129.356 72.0833 125.737C69.7751 121.689 67.4443 117.656 65.0902 113.635C62.526 109.253 59.9901 104.855 57.4546 100.457C56.1513 98.1967 54.8464 95.9374 53.5417 93.678C53.0208 92.7759 52.5 91.8738 51.9792 90.9717C51.7214 90.5252 51.4635 90.0786 51.1979 89.6186C37.9167 66.6155 24.6354 43.6123 11.3542 20.6092C11.0959 20.1619 10.8376 19.7147 10.5715 19.2538C10.0551 18.3594 9.53905 17.4647 9.02323 16.57C7.80209 14.4524 6.57829 12.3365 5.34513 10.2259C4.76176 9.22705 4.17988 8.22735 3.59812 7.22757C3.18607 6.52089 2.77185 5.81546 2.35758 5.11006C2.10917 4.68285 1.86076 4.25564 1.60482 3.81549C1.275 3.25165 1.275 3.25165 0.938517 2.67643C0.466105 1.76123 0.2271 0.994585 0 6.42759e-05Z" fill="#40B783"/>
<path d="M100 0.000187571C112.003 -0.126245 124.005 -0.221692 136.009 -0.280246C137.118 -0.285802 138.228 -0.291402 139.337 -0.29713C139.751 -0.29926 139.751 -0.29926 140.173 -0.301432C144.358 -0.323509 148.543 -0.361629 152.728 -0.408129C157.586 -0.462073 162.443 -0.496994 167.301 -0.509066C169.873 -0.516124 172.445 -0.532708 175.017 -0.572076C177.439 -0.60884 179.859 -0.620144 182.281 -0.612008C183.169 -0.613496 184.057 -0.624252 184.945 -0.645012C191.479 -0.790243 191.479 -0.790243 193.172 0.520334C194.451 1.97235 195.12 3.62346 195.833 5.41269C196.312 6.25868 196.801 7.09864 197.306 7.92865C197.797 8.78095 198.287 9.63371 198.776 10.4869C199.184 11.1959 199.592 11.9049 200 12.6139C200.419 13.3416 200.837 14.0694 201.255 14.7973C202.57 17.0834 203.889 19.3667 205.208 21.6502C205.729 22.5523 206.25 23.4543 206.771 24.3564C207.029 24.803 207.286 25.2495 207.552 25.7096C234.896 73.0689 234.896 73.0689 235.678 74.4232C236.196 75.3216 236.715 76.2199 237.234 77.1183C238.569 79.4295 239.902 81.7416 241.234 84.0549C241.777 84.9988 242.321 85.9426 242.865 86.8864C243.254 87.5631 243.254 87.5631 243.652 88.2534C245.254 91.0298 246.877 93.7921 248.568 96.5155C249.583 98.1698 249.583 98.1698 249.583 99.0906C249.858 99.0906 250.133 99.0906 250.417 99.0906C250.582 98.6488 250.582 98.6488 250.751 98.198C251.276 96.9471 251.893 95.8118 252.57 94.636C252.836 94.1725 253.102 93.709 253.376 93.2314C253.665 92.7298 253.955 92.2281 254.245 91.7265C254.546 91.2032 254.846 90.6798 255.147 90.1564C255.92 88.8125 256.694 87.4696 257.469 86.127C258.156 84.9368 258.842 83.7461 259.528 82.5555C260.814 80.3247 262.103 78.0951 263.392 75.8659C264.693 73.6157 265.992 71.3646 267.292 69.1136C267.812 68.2116 268.333 67.3095 268.854 66.4074C269.112 65.9609 269.37 65.5143 269.635 65.0543C272.5 60.0928 275.365 55.1314 278.229 50.1699C278.487 49.7233 278.745 49.2767 279.011 48.8166C279.531 47.9151 280.051 47.0137 280.572 46.1124C281.88 43.8472 283.187 41.5817 284.494 39.3156C287.239 34.5543 289.997 29.8006 292.774 25.0574C294.657 21.8347 296.511 18.5957 298.359 15.353C300.469 11.6516 302.598 7.96214 304.766 4.29376C304.995 3.90539 305.224 3.51702 305.46 3.11689C307.03 0.469806 307.03 0.469806 307.5 0.000187571C308.691 -0.0405863 309.871 -0.0539057 311.062 -0.0498799C311.629 -0.0504135 311.629 -0.0504136 312.207 -0.0509579C313.484 -0.0516481 314.761 -0.0493462 316.039 -0.0470783C316.95 -0.0469609 317.861 -0.0470266 318.773 -0.0472626C321.255 -0.0473825 323.738 -0.0449265 326.221 -0.0420274C328.812 -0.039433 331.403 -0.0391808 333.995 -0.0386861C338.347 -0.0375371 342.699 -0.0349326 347.052 -0.0312214C351.535 -0.027402 356.019 -0.0244538 360.503 -0.022683C360.917 -0.0225189 360.917 -0.022519 361.34 -0.0223516C362.725 -0.0218082 364.111 -0.021283 365.496 -0.0207645C376.997 -0.016407 388.499 -0.00907906 400 0.000187571C399.599 0.736075 399.197 1.47194 398.795 2.20779C398.572 2.61758 398.348 3.02736 398.118 3.44957C394.624 9.84235 391.003 16.1616 387.318 22.4455C385.778 25.0708 384.255 27.7051 382.734 30.3414C382.475 30.7911 382.216 31.2408 381.948 31.7042C381.423 32.6159 380.897 33.5276 380.371 34.4394C379.068 36.6997 377.763 38.959 376.458 41.2185C375.937 42.1205 375.417 43.0226 374.896 43.9247C354.583 79.106 354.583 79.106 334.271 114.287C334.013 114.734 333.755 115.18 333.489 115.641C332.969 116.542 332.449 117.443 331.928 118.345C330.62 120.61 329.313 122.875 328.006 125.141C325.497 129.493 322.981 133.84 320.443 138.175C318.184 142.035 315.957 145.913 313.742 149.798C311.586 153.577 309.404 157.34 307.204 161.094C305.337 164.284 303.498 167.491 301.667 170.702C299.358 174.75 297.028 178.783 294.674 182.804C292.109 187.186 289.573 191.583 287.038 195.982C285.735 198.242 284.43 200.501 283.125 202.761C282.604 203.663 282.083 204.565 281.562 205.467C276.354 214.488 271.146 223.509 265.937 232.53C265.68 232.976 265.422 233.423 265.156 233.883C264.636 234.783 264.117 235.683 263.597 236.582C262.005 239.341 260.412 242.099 258.82 244.858C258.293 245.771 257.766 246.683 257.238 247.595C256.023 249.696 254.813 251.799 253.618 253.911C253.3 254.47 253.3 254.47 252.976 255.04C252.582 255.733 252.19 256.427 251.801 257.122C251.363 257.89 250.893 258.639 250.417 259.384C250.142 259.384 249.867 259.384 249.583 259.384C198.021 170.078 198.021 170.078 197.239 168.724C196.719 167.823 196.199 166.921 195.678 166.02C194.37 163.755 193.063 161.489 191.756 159.223C189.247 154.872 186.731 150.525 184.193 146.19C181.934 142.33 179.707 138.452 177.492 134.567C175.569 131.196 173.629 127.836 171.667 124.488C169.56 120.893 167.481 117.282 165.417 113.663C163.108 109.615 160.778 105.582 158.424 101.561C155.859 97.1792 153.323 92.7813 150.788 88.3831C149.485 86.1228 148.18 83.8635 146.875 81.604C146.354 80.702 145.833 79.7999 145.312 78.8978C145.055 78.4513 144.797 78.0047 144.531 77.5447C133.333 58.1499 122.135 38.7551 110.937 19.3603C110.679 18.9129 110.421 18.4655 110.155 18.0046C109.639 17.1111 109.123 16.2175 108.607 15.3238C107.38 13.1962 106.151 11.0693 104.918 8.94476C104.331 7.93345 103.745 6.92176 103.159 5.91005C102.741 5.19012 102.323 4.47074 101.904 3.75137C101.655 3.32013 101.405 2.8889 101.147 2.44459C100.814 1.87095 100.814 1.87095 100.475 1.28572C100 0.416534 100 0.416534 100 0.000187571Z" fill="#34495E"/>
</g>
<defs>
<clipPath id="clip0_28_9">
<rect width="500" height="433" fill="white"/>
</clipPath>
</defs>
</svg>
